<svg width="400" height="100" viewBox="0 0 400 100" fill="none" xmlns="http://www.w3.org/2000/svg">
  <path fill="#111111" d="M31.82 75.86 Q26.06 75.86 21.99 73.45 Q17.92 71.04 15.72 66.58 Q13.53 62.11 13.53 56.14 Q13.53 50.66 15.15 45.95 Q16.77 41.23 19.40 37.20 Q22.02 33.17 25.19 30.00 Q28.36 26.83 31.53 24.74 L44.34 24.74 Q38.44 28.99 34.16 32.88 Q29.87 36.77 27.17 40.91 Q24.47 45.05 23.39 50.23 L23.97 50.38 Q24.90 48.43 26.34 46.74 Q27.78 45.05 29.98 44.00 Q32.18 42.96 35.34 42.96 Q39.52 42.96 42.87 44.83 Q46.22 46.70 48.12 50.23 Q50.03 53.76 50.03 58.51 Q50.03 63.55 47.76 67.48 Q45.50 71.40 41.43 73.63 Q37.36 75.86 31.82 75.86 Z M31.82 68.38 Q34.48 68.38 36.35 67.37 Q38.22 66.36 39.27 64.49 Q40.31 62.62 40.31 59.88 L40.31 58.80 Q40.31 56.06 39.27 54.16 Q38.22 52.25 36.35 51.28 Q34.48 50.30 31.82 50.30 Q29.15 50.30 27.28 51.28 Q25.41 52.25 24.36 54.16 Q23.32 56.06 23.32 58.80 L23.32 59.88 Q23.32 62.62 24.36 64.49 Q25.41 66.36 27.28 67.37 Q29.15 68.38 31.82 68.38 Z"/>
  <path fill="#111111" d="M74.80 75.86 Q68.39 75.86 64.22 72.77 Q60.04 69.67 58.06 63.88 Q56.08 58.08 56.08 49.87 Q56.08 41.66 58.06 35.83 Q60.04 30.00 64.22 26.94 Q68.39 23.88 74.80 23.88 Q81.28 23.88 85.42 26.94 Q89.56 30.00 91.54 35.83 Q93.52 41.66 93.52 49.87 Q93.52 58.08 91.54 63.88 Q89.56 69.67 85.42 72.77 Q81.28 75.86 74.80 75.86 Z M74.80 67.87 Q77.97 67.87 79.84 66.22 Q81.71 64.56 82.58 61.54 Q83.44 58.51 83.44 54.41 L83.44 45.34 Q83.44 41.16 82.58 38.17 Q81.71 35.18 79.84 33.53 Q77.97 31.87 74.80 31.87 Q71.63 31.87 69.76 33.53 Q67.89 35.18 67.02 38.17 Q66.16 41.16 66.16 45.34 L66.16 54.41 Q66.16 58.51 67.02 61.54 Q67.89 64.56 69.76 66.22 Q71.63 67.87 74.80 67.87 Z"/>
  <path fill="#111111" d="M133.48 24.74 L133.48 32.95 L110.87 32.95 L109.72 49.80 L110.22 49.80 Q111.30 47.64 112.64 46.02 Q113.97 44.40 115.95 43.46 Q117.93 42.53 120.88 42.53 Q125.20 42.53 128.66 44.44 Q132.11 46.34 134.16 49.87 Q136.22 53.40 136.22 58.44 Q136.22 63.48 134.06 67.40 Q131.90 71.33 127.72 73.60 Q123.54 75.86 117.64 75.86 Q113.03 75.86 109.72 74.57 Q106.41 73.27 104.14 71.11 Q101.87 68.95 100.36 66.50 L107.27 61.18 Q109.00 64.06 111.30 66.07 Q113.61 68.09 117.71 68.09 Q121.96 68.09 124.16 65.71 Q126.35 63.34 126.35 59.23 L126.35 58.66 Q126.35 54.77 124.12 52.54 Q121.89 50.30 117.93 50.30 Q114.83 50.30 112.89 51.49 Q110.94 52.68 109.79 54.05 L102.02 52.97 L103.89 24.74 Z"/>
  <path fill="#111111" d="M144.93 75.00 L144.93 21.72 L154.14 21.72 L154.14 43.61 L154.43 43.61 Q155.44 40.37 158.28 38.46 Q161.13 36.55 164.80 36.55 Q169.62 36.55 172.86 38.86 Q176.10 41.16 177.83 45.52 Q179.56 49.87 179.56 56.14 Q179.56 62.40 177.83 66.83 Q176.10 71.26 172.86 73.56 Q169.62 75.86 164.80 75.86 Q161.13 75.86 158.32 73.92 Q155.51 71.98 154.43 68.74 L154.14 68.74 L154.14 75.00 Z M161.85 68.23 Q165.45 68.23 167.68 65.82 Q169.91 63.41 169.91 59.45 L169.91 52.97 Q169.91 48.94 167.68 46.52 Q165.45 44.11 161.85 44.11 Q159.69 44.11 157.92 44.87 Q156.16 45.62 155.15 46.99 Q154.14 48.36 154.14 50.16 L154.14 62.11 Q154.14 64.06 155.15 65.42 Q156.16 66.79 157.92 67.51 Q159.69 68.23 161.85 68.23 Z"/>
  <path fill="#FF6B35" d="M189.53 75.79 Q186.65 75.79 185.21 74.28 Q183.77 72.77 183.77 70.54 L183.77 69.24 Q183.77 66.94 185.21 65.42 Q186.65 63.91 189.53 63.91 Q192.55 63.91 193.92 65.42 Q195.29 66.94 195.29 69.24 L195.29 70.54 Q195.29 72.77 193.92 74.28 Q192.55 75.79 189.53 75.79 Z"/>
  <path fill="#FF6B35" d="M238.78 75.00 L233.66 75.00 Q231.58 75.00 229.96 74.03 Q228.34 73.06 227.44 71.18 Q226.54 69.31 226.54 66.79 L226.54 66.00 L228.84 68.52 L226.25 68.52 Q225.31 72.12 222.40 73.99 Q219.48 75.86 215.30 75.86 Q209.54 75.86 206.45 72.80 Q203.35 69.74 203.35 64.78 Q203.35 60.89 205.26 58.37 Q207.17 55.85 210.77 54.55 Q214.37 53.26 219.41 53.26 L225.82 53.26 L225.82 50.52 Q225.82 47.42 224.16 45.66 Q222.50 43.90 218.83 43.90 Q215.59 43.90 213.61 45.30 Q211.63 46.70 210.26 48.65 L204.79 43.75 Q206.88 40.51 210.34 38.53 Q213.79 36.55 219.48 36.55 Q227.04 36.55 231.04 40.04 Q235.03 43.54 235.03 49.94 L235.03 67.66 L238.78 67.66 Z M225.82 58.80 L219.91 58.80 Q216.31 58.80 214.51 59.99 Q212.71 61.18 212.71 63.41 L212.71 64.63 Q212.71 66.86 214.22 68.02 Q215.74 69.17 218.40 69.17 Q220.49 69.17 222.14 68.56 Q223.80 67.94 224.81 66.72 Q225.82 65.50 225.82 63.77 Z"/>
  <path fill="#FF6B35" d="M250.87 31.94 Q248.06 31.94 246.77 30.61 Q245.47 29.28 245.47 27.34 L245.47 25.90 Q245.47 23.88 246.77 22.58 Q248.06 21.29 250.87 21.29 Q253.68 21.29 254.98 22.58 Q256.27 23.88 256.27 25.90 L256.27 27.34 Q256.27 29.28 254.98 30.61 Q253.68 31.94 250.87 31.94 Z M246.26 75.00 L246.26 37.42 L255.48 37.42 L255.48 75.00 Z"/>
</svg>