<svg width="512" height="512" viewBox="0 0 512 512" fill="none" xmlns="http://www.w3.org/2000/svg">
  <rect x="56" y="56" width="400" height="400" rx="48" fill="#FF6B35"/>
  <path fill="#FFFFFF" d="M303.28 287.90 Q303.28 300.38 296.92 309.50 Q290.56 318.62 279.04 323.54 Q267.52 328.46 252.64 328.46 Q240.64 328.46 228.76 324.86 Q216.88 321.26 207.04 312.38 L222.64 293.42 Q228.64 299.42 236.20 302.66 Q243.76 305.90 252.88 305.90 Q263.92 305.90 270.28 301.46 Q276.64 297.02 276.64 288.86 Q276.64 284.06 274.24 280.58 Q271.84 277.10 266.92 274.58 Q262.00 272.06 254.56 270.14 L237.28 265.10 Q223.84 261.26 215.92 255.74 Q208.00 250.22 204.52 243.38 Q201.04 236.54 201.04 229.34 Q201.04 218.54 207.40 209.90 Q213.76 201.26 226.72 195.74 L226.72 192.38 Q218.56 187.10 213.52 178.82 Q208.48 170.54 208.48 159.74 Q208.48 147.02 214.96 138.14 Q221.44 129.26 232.84 124.58 Q244.24 119.90 259.12 119.90 Q271.12 119.90 283.12 123.50 Q295.12 127.10 304.96 135.98 L289.12 154.94 Q283.12 149.18 275.80 145.82 Q268.48 142.46 258.40 142.46 Q248.08 142.46 241.60 146.42 Q235.12 150.38 235.12 158.78 Q235.12 163.34 237.52 166.82 Q239.92 170.30 244.84 172.70 Q249.76 175.10 257.20 177.02 L274.48 182.06 Q288.16 185.66 296.08 191.42 Q304.00 197.18 307.48 204.02 Q310.96 210.86 310.96 218.30 Q310.96 228.86 304.60 237.62 Q298.24 246.38 285.04 251.66 L285.04 254.78 Q293.44 260.30 298.36 268.58 Q303.28 276.86 303.28 287.90 Z M284.56 227.42 Q284.56 222.38 282.64 218.30 Q280.72 214.22 275.92 210.98 Q271.12 207.74 262.72 205.34 L245.68 200.54 Q243.76 200.06 241.84 199.46 Q239.92 198.86 238.00 198.14 Q232.96 202.94 230.08 208.34 Q227.20 213.74 227.20 220.22 Q227.20 227.42 231.88 232.82 Q236.56 238.22 249.04 241.82 L266.08 246.62 Q268.00 247.10 270.04 247.82 Q272.08 248.54 274.00 249.26 Q279.04 244.22 281.80 238.94 Q284.56 233.66 284.56 227.42 Z"/>
</svg>