<svg width="1024" height="1024" viewBox="0 0 1024 1024" fill="none" xmlns="http://www.w3.org/2000/svg">
  <rect x="112" y="112" width="800" height="800" rx="96" fill="#FF6B35"/>
  <path fill="#FFFFFF" d="M606.56 575.81 Q606.56 600.77 593.84 619.01 Q581.12 637.25 558.08 647.09 Q535.04 656.93 505.28 656.93 Q481.28 656.93 457.52 649.73 Q433.76 642.53 414.08 624.77 L445.28 586.85 Q457.28 598.85 472.40 605.33 Q487.52 611.81 505.76 611.81 Q527.84 611.81 540.56 602.93 Q553.28 594.05 553.28 577.73 Q553.28 568.13 548.48 561.17 Q543.68 554.21 533.84 549.17 Q524.00 544.13 509.12 540.29 L474.56 530.21 Q447.68 522.53 431.84 511.49 Q416.00 500.45 409.04 486.77 Q402.08 473.09 402.08 458.69 Q402.08 437.09 414.80 419.81 Q427.52 402.53 453.44 391.49 L453.44 384.77 Q437.12 374.21 427.04 357.65 Q416.96 341.09 416.96 319.49 Q416.96 294.05 429.92 276.29 Q442.88 258.53 465.68 249.17 Q488.48 239.81 518.24 239.81 Q542.24 239.81 566.24 247.01 Q590.24 254.21 609.92 271.97 L578.24 309.89 Q566.24 298.37 551.60 291.65 Q536.96 284.93 516.80 284.93 Q496.16 284.93 483.20 292.85 Q470.24 300.77 470.24 317.57 Q470.24 326.69 475.04 333.65 Q479.84 340.61 489.68 345.41 Q499.52 350.21 514.40 354.05 L548.96 364.13 Q576.32 371.33 592.16 382.85 Q608.00 394.37 614.96 408.05 Q621.92 421.73 621.92 436.61 Q621.92 457.73 609.20 475.25 Q596.48 492.77 570.08 503.33 L570.08 509.57 Q586.88 520.61 596.72 537.17 Q606.56 553.73 606.56 575.81 Z M569.12 454.85 Q569.12 444.77 565.28 436.61 Q561.44 428.45 551.84 421.97 Q542.24 415.49 525.44 410.69 L491.36 401.09 Q487.52 400.13 483.68 398.93 Q479.84 397.73 476.00 396.29 Q465.92 405.89 460.16 416.69 Q454.40 427.49 454.40 440.45 Q454.40 454.85 463.76 465.65 Q473.12 476.45 498.08 483.65 L532.16 493.25 Q536.00 494.21 540.08 495.65 Q544.16 497.09 548.00 498.53 Q558.08 488.45 563.60 477.89 Q569.12 467.33 569.12 454.85 Z"/>
</svg>