<svg width="1200" height="300" viewBox="0 0 1200 300" fill="none" xmlns="http://www.w3.org/2000/svg">
  <rect x="50" y="50" width="200" height="200" rx="24" fill="#FF6B35"/>
  <path fill="#FFFFFF" d="M173.64 164.80 Q173.64 171.04 170.46 175.60 Q167.28 180.16 161.52 182.62 Q155.76 185.08 148.32 185.08 Q142.32 185.08 136.38 183.28 Q130.44 181.48 125.52 177.04 L133.32 167.56 Q136.32 170.56 140.10 172.18 Q143.88 173.80 148.44 173.80 Q153.96 173.80 157.14 171.58 Q160.32 169.36 160.32 165.28 Q160.32 162.88 159.12 161.14 Q157.92 159.40 155.46 158.14 Q153.00 156.88 149.28 155.92 L140.64 153.40 Q133.92 151.48 129.96 148.72 Q126.00 145.96 124.26 142.54 Q122.52 139.12 122.52 135.52 Q122.52 130.12 125.70 125.80 Q128.88 121.48 135.36 118.72 L135.36 117.04 Q131.28 114.40 128.76 110.26 Q126.24 106.12 126.24 100.72 Q126.24 94.36 129.48 89.92 Q132.72 85.48 138.42 83.14 Q144.12 80.80 151.56 80.80 Q157.56 80.80 163.56 82.60 Q169.56 84.40 174.48 88.84 L166.56 98.32 Q163.56 95.44 159.90 93.76 Q156.24 92.08 151.20 92.08 Q146.04 92.08 142.80 94.06 Q139.56 96.04 139.56 100.24 Q139.56 102.52 140.76 104.26 Q141.96 106.00 144.42 107.20 Q146.88 108.40 150.60 109.36 L159.24 111.88 Q166.08 113.68 170.04 116.56 Q174.00 119.44 175.74 122.86 Q177.48 126.28 177.48 130.00 Q177.48 135.28 174.30 139.66 Q171.12 144.04 164.52 146.68 L164.52 148.24 Q168.72 151.00 171.18 155.14 Q173.64 159.28 173.64 164.80 Z M164.28 134.56 Q164.28 132.04 163.32 130.00 Q162.36 127.96 159.96 126.34 Q157.56 124.72 153.36 123.52 L144.84 121.12 Q143.88 120.88 142.92 120.58 Q141.96 120.28 141.00 119.92 Q138.48 122.32 137.04 125.02 Q135.60 127.72 135.60 130.96 Q135.60 134.56 137.94 137.26 Q140.28 139.96 146.52 141.76 L155.04 144.16 Q156.00 144.40 157.02 144.76 Q158.04 145.12 159.00 145.48 Q161.52 142.96 162.90 140.32 Q164.28 137.68 164.28 134.56 Z"/>
  <path fill="#111111" d="M336.36 196.44 Q326.76 196.44 319.98 192.42 Q313.20 188.40 309.54 180.96 Q305.88 173.52 305.88 163.56 Q305.88 154.44 308.58 146.58 Q311.28 138.72 315.66 132.00 Q320.04 125.28 325.32 120.00 Q330.60 114.72 335.88 111.24 L357.24 111.24 Q347.40 118.32 340.26 124.80 Q333.12 131.28 328.62 138.18 Q324.12 145.08 322.32 153.72 L323.28 153.96 Q324.84 150.72 327.24 147.90 Q329.64 145.08 333.30 143.34 Q336.96 141.60 342.24 141.60 Q349.20 141.60 354.78 144.72 Q360.36 147.84 363.54 153.72 Q366.72 159.60 366.72 167.52 Q366.72 175.92 362.94 182.46 Q359.16 189.00 352.38 192.72 Q345.60 196.44 336.36 196.44 Z M336.36 183.96 Q340.80 183.96 343.92 182.28 Q347.04 180.60 348.78 177.48 Q350.52 174.36 350.52 169.80 L350.52 168.00 Q350.52 163.44 348.78 160.26 Q347.04 157.08 343.92 155.46 Q340.80 153.84 336.36 153.84 Q331.92 153.84 328.80 155.46 Q325.68 157.08 323.94 160.26 Q322.20 163.44 322.20 168.00 L322.20 169.80 Q322.20 174.36 323.94 177.48 Q325.68 180.60 328.80 182.28 Q331.92 183.96 336.36 183.96 Z"/>
  <path fill="#111111" d="M408.00 196.44 Q397.32 196.44 390.36 191.28 Q383.40 186.12 380.10 176.46 Q376.80 166.80 376.80 153.12 Q376.80 139.44 380.10 129.72 Q383.40 120.00 390.36 114.90 Q397.32 109.80 408.00 109.80 Q418.80 109.80 425.70 114.90 Q432.60 120.00 435.90 129.72 Q439.20 139.44 439.20 153.12 Q439.20 166.80 435.90 176.46 Q432.60 186.12 425.70 191.28 Q418.80 196.44 408.00 196.44 Z M408.00 183.12 Q413.28 183.12 416.40 180.36 Q419.52 177.60 420.96 172.56 Q422.40 167.52 422.40 160.68 L422.40 145.56 Q422.40 138.60 420.96 133.62 Q419.52 128.64 416.40 125.88 Q413.28 123.12 408.00 123.12 Q402.72 123.12 399.60 125.88 Q396.48 128.64 395.04 133.62 Q393.60 138.60 393.60 145.56 L393.60 160.68 Q393.60 167.52 395.04 172.56 Q396.48 177.60 399.60 180.36 Q402.72 183.12 408.00 183.12 Z"/>
  <path fill="#111111" d="M505.80 111.24 L505.80 124.92 L468.12 124.92 L466.20 153.00 L467.04 153.00 Q468.84 149.40 471.06 146.70 Q473.28 144.00 476.58 142.44 Q479.88 140.88 484.80 140.88 Q492.00 140.88 497.76 144.06 Q503.52 147.24 506.94 153.12 Q510.36 159.00 510.36 167.40 Q510.36 175.80 506.76 182.34 Q503.16 188.88 496.20 192.66 Q489.24 196.44 479.40 196.44 Q471.72 196.44 466.20 194.28 Q460.68 192.12 456.90 188.52 Q453.12 184.92 450.60 180.84 L462.12 171.96 Q465.00 176.76 468.84 180.12 Q472.68 183.48 479.52 183.48 Q486.60 183.48 490.26 179.52 Q493.92 175.56 493.92 168.72 L493.92 167.76 Q493.92 161.28 490.20 157.56 Q486.48 153.84 479.88 153.84 Q474.72 153.84 471.48 155.82 Q468.24 157.80 466.32 160.08 L453.36 158.28 L456.48 111.24 Z"/>
  <path fill="#111111" d="M524.88 195.00 L524.88 106.20 L540.24 106.20 L540.24 142.68 L540.72 142.68 Q542.40 137.28 547.14 134.10 Q551.88 130.92 558.00 130.92 Q566.04 130.92 571.44 134.76 Q576.84 138.60 579.72 145.86 Q582.60 153.12 582.60 163.56 Q582.60 174.00 579.72 181.38 Q576.84 188.76 571.44 192.60 Q566.04 196.44 558.00 196.44 Q551.88 196.44 547.20 193.20 Q542.52 189.96 540.72 184.56 L540.24 184.56 L540.24 195.00 Z M553.08 183.72 Q559.08 183.72 562.80 179.70 Q566.52 175.68 566.52 169.08 L566.52 158.28 Q566.52 151.56 562.80 147.54 Q559.08 143.52 553.08 143.52 Q549.48 143.52 546.54 144.78 Q543.60 146.04 541.92 148.32 Q540.24 150.60 540.24 153.60 L540.24 173.52 Q540.24 176.76 541.92 179.04 Q543.60 181.32 546.54 182.52 Q549.48 183.72 553.08 183.72 Z"/>
  <path fill="#FF6B35" d="M597.88 196.32 Q593.08 196.32 590.68 193.80 Q588.28 191.28 588.28 187.56 L588.28 185.40 Q588.28 181.56 590.68 179.04 Q593.08 176.52 597.88 176.52 Q602.92 176.52 605.20 179.04 Q607.48 181.56 607.48 185.40 L607.48 187.56 Q607.48 191.28 605.20 193.80 Q602.92 196.32 597.88 196.32 Z"/>
  <path fill="#FF6B35" d="M679.96 195.00 L671.44 195.00 Q667.96 195.00 665.26 193.38 Q662.56 191.76 661.06 188.64 Q659.56 185.52 659.56 181.32 L659.56 180.00 L663.40 184.20 L659.08 184.20 Q657.52 190.20 652.66 193.32 Q647.80 196.44 640.84 196.44 Q631.24 196.44 626.08 191.34 Q620.92 186.24 620.92 177.96 Q620.92 171.48 624.10 167.28 Q627.28 163.08 633.28 160.92 Q639.28 158.76 647.68 158.76 L658.36 158.76 L658.36 154.20 Q658.36 149.04 655.60 146.10 Q652.84 143.16 646.72 143.16 Q641.32 143.16 638.02 145.50 Q634.72 147.84 632.44 151.08 L623.32 142.92 Q626.80 137.52 632.56 134.22 Q638.32 130.92 647.80 130.92 Q660.40 130.92 667.06 136.74 Q673.72 142.56 673.72 153.24 L673.72 182.76 L679.96 182.76 Z M658.36 168.00 L648.52 168.00 Q642.52 168.00 639.52 169.98 Q636.52 171.96 636.52 175.68 L636.52 177.72 Q636.52 181.44 639.04 183.36 Q641.56 185.28 646.00 185.28 Q649.48 185.28 652.24 184.26 Q655.00 183.24 656.68 181.20 Q658.36 179.16 658.36 176.28 Z"/>
  <path fill="#FF6B35" d="M700.12 123.24 Q695.44 123.24 693.28 121.02 Q691.12 118.80 691.12 115.56 L691.12 113.16 Q691.12 109.80 693.28 107.64 Q695.44 105.48 700.12 105.48 Q704.80 105.48 706.96 107.64 Q709.12 109.80 709.12 113.16 L709.12 115.56 Q709.12 118.80 706.96 121.02 Q704.80 123.24 700.12 123.24 Z M692.44 195.00 L692.44 132.36 L707.80 132.36 L707.80 195.00 Z"/>
</svg>